<svg version="1.1" id="Layer_1" xmlns="http://www.w3.org/2000/svg" xmlns:xlink="http://www.w3.org/1999/xlink" x="0px" y="0px"
	 width="100%" viewBox="0 0 500 500" enable-background="new 0 0 500 500" xml:space="preserve">
<path fill="#0a1b31" opacity="1.000000" stroke="none" 
	d="
M327.000000,501.000000 
	C218.000031,501.000000 109.500053,501.000000 1.000058,501.000000 
	C1.000039,334.333405 1.000039,167.666794 1.000019,1.000148 
	C167.666565,1.000098 334.333130,1.000098 500.999756,1.000049 
	C500.999847,167.666519 500.999847,334.333038 500.999939,500.999786 
	C443.166656,501.000000 385.333344,501.000000 327.000000,501.000000 
M352.769409,153.461716 
	C349.358704,150.290344 346.053009,146.996521 342.520752,143.966873 
	C312.802704,118.477493 277.849487,107.304932 239.382935,110.511375 
	C203.071747,113.538147 171.787979,128.723450 146.816101,156.344116 
	C122.783401,182.925949 111.068962,214.033707 110.088730,249.395874 
	C109.415207,273.693604 115.695465,296.501038 126.123131,318.182159 
	C125.006737,318.503784 123.890518,318.826019 122.773926,319.146942 
	C96.611824,326.665985 78.764694,353.649017 82.220886,380.459198 
	C85.911377,409.086884 109.420769,430.553802 137.580429,431.009216 
	C167.612137,431.494873 190.483978,411.933838 196.676178,381.201294 
	C218.848221,390.150238 241.897659,393.971222 265.607544,390.949463 
	C322.762573,383.665161 362.064209,352.747650 383.196014,299.314972 
	C391.450928,278.442078 393.787994,256.476898 390.928101,234.030716 
	C389.015686,219.021133 384.701263,204.763779 379.021454,190.297623 
	C391.285156,175.992126 403.548859,161.686615 416.683411,146.365250 
	C409.932526,147.194183 404.537415,147.867569 399.139496,148.517365 
	C383.802887,150.363617 368.465149,152.200256 352.769409,153.461716 
M104.638069,299.916992 
	C105.123123,298.330719 105.694649,296.765137 106.079765,295.154968 
	C109.689438,280.062744 100.074600,264.741669 84.907265,261.371063 
	C70.039040,258.066986 54.971241,267.831238 51.749210,282.858276 
	C48.860249,296.331940 56.239796,310.075806 68.844185,314.696411 
	C82.827072,319.822327 97.021667,314.149231 104.638069,299.916992 
z"/>
<path fill="#145d98" opacity="1.000000" stroke="none" 
	d="
M126.835815,318.020386 
	C115.695465,296.501038 109.415207,273.693604 110.088730,249.395874 
	C111.068962,214.033707 122.783401,182.925949 146.816101,156.344116 
	C171.787979,128.723450 203.071747,113.538147 239.382935,110.511375 
	C277.849487,107.304932 312.802704,118.477493 342.520752,143.966873 
	C346.053009,146.996521 349.358704,150.290344 352.573334,153.930420 
	C336.859039,156.402725 321.342499,158.419571 305.822235,160.407257 
	C267.676697,165.292603 229.528625,170.158386 191.383286,175.045334 
	C178.865921,176.649002 166.353790,178.293594 153.120285,180.012863 
	C154.659714,181.811172 155.684433,183.071609 156.774933,184.272324 
	C168.088425,196.729095 179.357025,209.227493 190.778259,221.584793 
	C193.194016,224.198547 194.271851,226.814880 194.186005,230.450806 
	C193.808441,246.440796 193.731094,262.437958 193.573700,278.432831 
	C193.559921,279.831787 193.755417,281.232788 193.881668,283.031281 
	C205.984375,277.683960 217.515289,272.589325 229.474121,267.305573 
	C241.176331,285.970367 252.726105,304.392029 264.565796,323.276093 
	C265.704498,321.938812 266.558228,320.927277 267.421387,319.923889 
	C288.607117,295.296509 309.768646,270.648285 330.988708,246.050507 
	C346.866638,227.645187 362.820312,209.305176 378.740265,190.936096 
	C384.701263,204.763779 389.015686,219.021133 390.928101,234.030716 
	C393.787994,256.476898 391.450928,278.442078 383.196014,299.314972 
	C362.064209,352.747650 322.762573,383.665161 265.607544,390.949463 
	C241.897659,393.971222 218.848221,390.150238 196.001129,380.980957 
	C165.878082,367.071655 142.512070,346.743286 126.835815,318.020386 
z"/>
<path fill="#E5DCD0" opacity="1.000000" stroke="none" 
	d="
M378.880859,190.616852 
	C362.820312,209.305176 346.866638,227.645187 330.988708,246.050507 
	C309.768646,270.648285 288.607117,295.296509 267.421387,319.923889 
	C266.558228,320.927277 265.704498,321.938812 264.565796,323.276093 
	C252.726105,304.392029 241.176331,285.970367 229.474121,267.305573 
	C217.515289,272.589325 205.984375,277.683960 193.881668,283.031281 
	C193.755417,281.232788 193.559921,279.831787 193.573700,278.432831 
	C193.731094,262.437958 193.808441,246.440796 194.186005,230.450806 
	C194.271851,226.814880 193.194016,224.198547 190.778259,221.584793 
	C179.357025,209.227493 168.088425,196.729095 156.774933,184.272324 
	C155.684433,183.071609 154.659714,181.811172 153.120285,180.012863 
	C166.353790,178.293594 178.865921,176.649002 191.383286,175.045334 
	C229.528625,170.158386 267.676697,165.292603 305.822235,160.407257 
	C321.342499,158.419571 336.859039,156.402725 352.752563,154.219910 
	C368.465149,152.200256 383.802887,150.363617 399.139496,148.517365 
	C404.537415,147.867569 409.932526,147.194183 416.683411,146.365250 
	C403.548859,161.686615 391.285156,175.992126 378.880859,190.616852 
M401.176575,153.916946 
	C399.890533,154.233490 398.559998,154.429169 397.324829,154.883911 
	C332.338470,178.809998 267.367126,202.776886 202.359955,226.646164 
	C199.213516,227.801468 197.920853,229.418686 197.947815,232.808975 
	C198.047089,245.296478 197.880035,257.785919 197.871124,270.274689 
	C197.870148,271.659454 198.240814,273.044495 198.547073,275.183350 
	C200.965714,273.904205 202.726227,273.068756 204.393951,272.077271 
	C256.341949,241.193680 308.295868,210.320007 360.211273,179.381638 
	C374.214355,171.036667 388.096222,162.488281 402.349365,153.989334 
	C402.450104,153.801163 402.550842,153.612991 402.651581,153.424835 
	C402.422089,153.598938 402.192596,153.773056 401.176575,153.916946 
z"/>
<path fill="#E5DCD0" opacity="1.000000" stroke="none" 
	d="
M126.479477,318.101257 
	C142.512070,346.743286 165.878082,367.071655 195.637939,380.924866 
	C190.483978,411.933838 167.612137,431.494873 137.580429,431.009216 
	C109.420769,430.553802 85.911377,409.086884 82.220886,380.459198 
	C78.764694,353.649017 96.611824,326.665985 122.773926,319.146942 
	C123.890518,318.826019 125.006737,318.503784 126.479477,318.101257 
z"/>
<path fill="#E4DCCF" opacity="1.000000" stroke="none" 
	d="
M104.428993,300.237457 
	C97.021667,314.149231 82.827072,319.822327 68.844185,314.696411 
	C56.239796,310.075806 48.860249,296.331940 51.749210,282.858276 
	C54.971241,267.831238 70.039040,258.066986 84.907265,261.371063 
	C100.074600,264.741669 109.689438,280.062744 106.079765,295.154968 
	C105.694649,296.765137 105.123123,298.330719 104.428993,300.237457 
z"/>
<path fill="#B3ADA5" opacity="1.000000" stroke="none" 
	d="
M402.033752,154.033264 
	C388.096222,162.488281 374.214355,171.036667 360.211273,179.381638 
	C308.295868,210.320007 256.341949,241.193680 204.393951,272.077271 
	C202.726227,273.068756 200.965714,273.904205 198.547073,275.183350 
	C198.240814,273.044495 197.870148,271.659454 197.871124,270.274689 
	C197.880035,257.785919 198.047089,245.296478 197.947815,232.808975 
	C197.920853,229.418686 199.213516,227.801468 202.359955,226.646164 
	C267.367126,202.776886 332.338470,178.809998 397.324829,154.883911 
	C398.559998,154.429169 399.890533,154.233490 401.586853,153.954102 
	C401.997101,153.991272 402.033752,154.033264 402.033752,154.033264 
z"/>
<path fill="#B3ADA5" opacity="1.000000" stroke="none" 
	d="
M401.980103,153.969208 
	C402.192596,153.773056 402.422089,153.598938 402.651581,153.424835 
	C402.550842,153.612991 402.450104,153.801163 402.191559,154.011292 
	C402.033752,154.033264 401.997101,153.991272 401.980103,153.969208 
z"/>
</svg>