<?xml version="1.0" standalone="no"?>
<!DOCTYPE svg PUBLIC "-//W3C//DTD SVG 20010904//EN"
 "http://www.w3.org/TR/2001/REC-SVG-20010904/DTD/svg10.dtd">
<svg version="1.0" xmlns="http://www.w3.org/2000/svg"
 width="2560.000000pt" height="2560.000000pt" viewBox="0 0 2560.000000 2560.000000"
 preserveAspectRatio="xMidYMid meet">

<g transform="translate(0.000000,2560.000000) scale(0.100000,-0.100000)"
fill="#fcf8f8" stroke="none">
<path d="M11039 14706 c-146 -42 -246 -162 -257 -307 -14 -204 129 -367 333
-377 105 -5 178 21 251 90 76 71 108 148 109 258 0 73 -4 94 -29 147 -69 149
-251 234 -407 189z"/>
<path d="M8280 12810 l0 -1860 285 0 285 0 0 1860 0 1860 -285 0 -285 0 0
-1860z"/>
<path d="M9550 12810 l0 -1860 285 0 285 0 0 1860 0 1860 -285 0 -285 0 0
-1860z"/>
<path d="M4020 13115 c-448 -71 -824 -405 -937 -835 -31 -117 -42 -317 -24
-441 70 -474 385 -808 861 -912 76 -16 129 -21 265 -20 151 0 181 3 267 26
177 47 319 121 456 237 34 29 62 59 62 65 0 7 -83 92 -185 189 l-184 177 -51
-40 c-67 -53 -164 -99 -248 -116 -192 -41 -372 13 -513 154 -85 85 -128 162
-155 277 -21 91 -14 243 15 335 50 157 183 296 334 349 200 70 406 39 580 -88
l49 -35 186 186 186 187 -39 40 c-56 58 -171 135 -268 180 -185 87 -437 119
-657 85z"/>
<path d="M6290 13115 c-485 -80 -873 -454 -955 -920 -38 -220 -3 -487 91 -702
84 -190 270 -380 472 -482 76 -39 218 -80 334 -97 187 -28 384 -9 544 51 85
32 189 93 228 134 16 17 33 28 38 25 4 -3 8 -43 8 -90 l0 -84 275 0 276 0 -3
638 -3 637 -28 100 c-111 410 -426 699 -849 780 -118 23 -324 28 -428 10z
m340 -541 c194 -57 334 -203 385 -399 21 -79 21 -242 0 -320 -80 -298 -372
-475 -678 -410 -109 23 -192 69 -277 155 -84 83 -129 162 -155 271 -32 135
-10 315 52 432 43 81 165 198 247 237 126 59 295 73 426 34z"/>
<path d="M13154 13119 c-183 -17 -382 -86 -532 -185 -128 -84 -284 -245 -354
-364 -72 -122 -112 -224 -138 -349 -19 -96 -20 -133 -20 -1220 l0 -1121 285 0
285 0 0 599 0 600 71 -44 c145 -89 271 -124 484 -132 107 -4 161 -1 230 12
457 85 813 430 905 876 22 104 26 297 10 409 -44 305 -213 573 -467 739 -200
131 -506 204 -759 180z m245 -544 c180 -43 332 -183 393 -363 28 -82 35 -256
14 -346 -26 -110 -72 -192 -151 -271 -81 -80 -139 -115 -245 -144 -203 -57
-420 0 -565 147 -75 76 -118 153 -145 258 -83 322 99 646 405 720 70 17 218
17 294 -1z"/>
<path d="M18425 13120 c-486 -64 -891 -439 -981 -908 -19 -99 -18 -328 2 -432
84 -447 397 -757 864 -856 105 -22 374 -25 465 -6 168 36 355 119 482 214 207
156 363 388 426 637 31 123 31 384 -1 519 -58 251 -194 463 -392 614 -220 168
-571 256 -865 218z m315 -546 c143 -42 270 -146 334 -274 148 -297 38 -670
-239 -806 -334 -164 -726 9 -820 362 -21 77 -21 240 0 319 57 216 229 375 448
415 69 12 209 4 277 -16z"/>
<path d="M21140 13115 c-437 -72 -797 -368 -925 -762 -51 -156 -55 -212 -55
-830 l0 -573 285 0 285 0 0 563 c0 457 3 575 15 632 45 211 191 369 401 431
72 22 226 24 304 5 192 -47 340 -189 406 -391 17 -50 19 -108 22 -647 l3 -593
285 0 285 0 -4 618 c-3 525 -6 628 -20 692 -100 453 -410 758 -859 845 -117
23 -323 28 -428 10z"/>
<path d="M15391 13069 c-223 -37 -432 -221 -513 -449 -19 -55 -22 -85 -23
-200 0 -121 3 -142 27 -208 38 -105 83 -177 159 -252 77 -76 148 -121 251
-158 l73 -27 510 -5 c487 -5 512 -6 544 -25 59 -35 76 -67 76 -145 0 -82 -18
-113 -85 -147 l-44 -23 -728 0 -728 0 0 -240 0 -240 763 0 c855 0 840 -1 987
72 68 33 102 59 171 127 143 144 207 305 196 495 -13 232 -139 432 -336 535
-145 75 -136 74 -703 80 -494 6 -507 7 -535 27 -15 11 -39 36 -51 55 -20 29
-23 44 -20 94 5 74 30 115 91 144 43 21 55 21 670 21 l627 0 -2 238 -3 237
-660 1 c-363 1 -684 -2 -714 -7z"/>
<path d="M10840 12010 l0 -1060 285 0 285 0 0 1060 0 1060 -285 0 -285 0 0
-1060z"/>
</g>
</svg>
