<svg version="1.1" id="Layer_1" xmlns="http://www.w3.org/2000/svg" xmlns:xlink="http://www.w3.org/1999/xlink" x="0px" y="0px"
	 width="100%" viewBox="0 0 2458 2480" enable-background="new 0 0 2458 2480" xml:space="preserve">
<path fill="#F2EDEB" opacity="1.000000" stroke="none" 
	d="
M2460.000000,1206.000000 
	C2460.000000,1228.041748 2460.000000,1250.083618 2459.217041,1273.259277 
	C2457.627686,1276.741089 2456.258301,1279.053589 2456.107666,1281.442993 
	C2455.251953,1295.019165 2454.904541,1308.628784 2453.967041,1322.198120 
	C2452.894531,1337.724243 2451.681885,1353.252441 2449.996094,1368.721680 
	C2447.521973,1391.425171 2445.433350,1414.222900 2441.610840,1436.713745 
	C2436.838379,1464.794189 2431.053955,1492.737549 2424.666992,1520.500854 
	C2413.258057,1570.094849 2398.198486,1618.608765 2380.314453,1666.285522 
	C2366.398193,1703.384155 2350.847656,1739.737549 2333.316162,1775.243286 
	C2325.802246,1790.460693 2318.062988,1805.594849 2309.722168,1820.369385 
	C2296.488770,1843.810059 2283.342773,1867.346802 2268.946045,1890.073853 
	C2240.666016,1934.717285 2210.198242,1977.849609 2175.413574,2017.754395 
	C2155.785400,2040.271362 2136.412842,2063.049805 2115.937256,2084.779541 
	C2089.019043,2113.347168 2060.283691,2140.085449 2029.978882,2165.095947 
	C2016.415771,2176.289551 2003.493652,2188.308350 1989.495728,2198.916992 
	C1955.610718,2224.597168 1921.481812,2250.013672 1884.960571,2271.900391 
	C1860.729980,2286.421387 1836.223999,2300.515137 1811.454102,2314.093506 
	C1793.971069,2323.677246 1776.056030,2332.548828 1757.941895,2340.886475 
	C1734.392578,2351.726074 1710.689453,2362.308105 1686.627563,2371.939209 
	C1652.681152,2385.527588 1618.096802,2397.374512 1582.924316,2407.511230 
	C1546.550415,2417.994873 1509.896606,2427.228760 1472.648071,2433.996338 
	C1450.499756,2438.020264 1428.335449,2441.991455 1406.100952,2445.494385 
	C1393.354614,2447.502441 1380.473511,2448.747559 1367.615601,2449.926514 
	C1356.391479,2450.956055 1345.114258,2451.405273 1333.861450,2452.123047 
	C1313.682617,2453.410645 1293.520020,2455.352539 1273.322021,2455.840332 
	C1246.674316,2456.483643 1219.999146,2455.994385 1193.335693,2455.977295 
	C1190.671509,2455.975342 1187.996338,2456.003418 1185.344727,2455.789551 
	C1170.160889,2454.564941 1154.985840,2453.228760 1139.800903,2452.015869 
	C1129.556152,2451.197266 1119.245728,2450.954834 1109.061035,2449.682861 
	C1091.334717,2447.468750 1073.637329,2444.935303 1056.011230,2442.029053 
	C1033.141968,2438.258057 1010.159729,2434.850098 987.578247,2429.731934 
	C955.552856,2422.473145 923.596497,2414.661133 892.083191,2405.466309 
	C864.671753,2397.467773 837.551270,2388.153076 810.962341,2377.734863 
	C777.244324,2364.523438 744.016846,2350.005615 710.930664,2335.259277 
	C694.846741,2328.090820 679.340088,2319.522217 663.971436,2310.877441 
	C639.641357,2297.191895 615.209290,2283.603760 591.608337,2268.724854 
	C551.972473,2243.736572 513.411377,2217.119873 477.522614,2186.868408 
	C455.456299,2168.268066 432.662720,2150.392090 411.883575,2130.433350 
	C373.033844,2093.118408 335.155212,2054.833984 301.289368,2012.697144 
	C279.644379,1985.765869 258.280884,1958.662231 239.020218,1930.019287 
	C222.521133,1905.483154 206.735764,1880.424927 191.628387,1855.007080 
	C177.547989,1831.317139 163.795883,1807.329346 151.685150,1782.598145 
	C137.375916,1753.377441 124.525154,1723.411377 111.865570,1693.420898 
	C92.310844,1647.095703 77.017609,1599.241211 64.258698,1550.667725 
	C50.358093,1497.747925 39.425606,1444.178467 33.840435,1389.634888 
	C31.413130,1365.930420 28.108143,1342.303101 26.218887,1318.559937 
	C24.692141,1299.372437 24.447554,1280.068237 24.083586,1260.807251 
	C23.749908,1243.149170 24.012815,1225.479614 24.025042,1207.815186 
	C24.026886,1205.149536 23.964725,1202.474609 24.153631,1199.819702 
	C25.399893,1182.304199 26.653769,1164.788818 28.008801,1147.281494 
	C29.363997,1129.772095 30.367971,1112.216919 32.400101,1094.783813 
	C34.314396,1078.361450 37.039230,1062.012207 39.994339,1045.737427 
	C44.905212,1018.691772 49.639385,991.587402 55.607819,964.765930 
	C66.806282,914.441162 81.997948,865.289062 99.844917,816.884338 
	C113.902390,778.757446 129.508148,741.318176 147.747833,705.079834 
	C162.992111,674.792664 179.583023,645.155151 196.385315,615.690491 
	C207.077728,596.940247 218.515915,578.519287 230.911118,560.856934 
	C253.213989,529.076843 275.337158,497.120270 300.884186,467.743988 
	C315.466858,450.975464 329.197144,433.441772 344.216064,417.083344 
	C358.569580,401.449677 373.839752,386.625702 389.170654,371.929504 
	C408.122681,353.762115 427.228851,335.727783 446.877045,318.322998 
	C463.257751,303.812622 480.138611,289.803436 497.468262,276.441650 
	C529.311584,251.889389 562.063232,228.553253 596.539795,207.794281 
	C620.170776,193.565598 643.703613,179.067474 668.084534,166.215286 
	C705.763000,146.353394 743.869812,127.229752 783.796509,112.109871 
	C808.665710,102.692116 833.436157,92.970268 858.566772,84.300476 
	C877.078308,77.914169 895.993225,72.606895 914.923035,67.546890 
	C938.315552,61.294010 961.794434,55.268288 985.444458,50.098335 
	C1017.802917,43.024719 1050.362671,36.954384 1083.390137,33.648659 
	C1105.447876,31.440903 1127.392944,27.985065 1149.479126,26.222755 
	C1168.996948,24.665373 1188.635864,24.306957 1208.228760,24.085323 
	C1237.554688,23.753595 1266.887329,23.997889 1296.217041,24.020540 
	C1299.212280,24.022854 1302.219727,24.041616 1305.200684,24.296747 
	C1319.054565,25.482492 1332.895752,26.817326 1346.751953,27.973783 
	C1356.662231,28.800915 1366.648071,28.973419 1376.495117,30.249008 
	C1393.556030,32.459076 1410.594849,34.960251 1427.535400,37.948757 
	C1455.577393,42.895676 1483.675293,47.673130 1511.496216,53.693295 
	C1564.519653,65.167084 1616.500854,80.515945 1667.042480,100.215660 
	C1700.163208,113.125175 1732.969482,126.996323 1765.211548,141.956375 
	C1790.839111,153.847397 1815.758301,167.408264 1840.332275,181.387558 
	C1866.013306,195.996658 1891.496704,211.112625 1916.006104,227.584839 
	C1954.025757,253.136902 1991.060059,280.147217 2025.557861,310.419525 
	C2043.022217,325.744965 2060.903809,340.658966 2077.564697,356.822571 
	C2110.269775,388.551208 2142.713867,420.590607 2171.273438,456.254700 
	C2186.201416,474.896149 2201.908691,492.973175 2215.889160,512.299683 
	C2235.350830,539.203613 2254.234131,566.588684 2272.034180,594.613098 
	C2287.703125,619.282166 2302.288818,644.715576 2316.023193,670.519226 
	C2339.016357,713.718811 2360.051758,757.920349 2376.792236,803.971130 
	C2387.691895,833.954346 2398.494385,864.043518 2407.482666,894.631165 
	C2416.547852,925.481201 2424.006348,956.854980 2430.886230,988.280151 
	C2436.831055,1015.433716 2441.569824,1042.891724 2445.719238,1070.384766 
	C2448.779541,1090.659180 2449.775635,1111.236328 2452.159180,1131.624023 
	C2454.667480,1153.079102 2456.264893,1174.557495 2456.025879,1196.163818 
	C2456.000244,1198.490234 2455.800049,1200.939575 2456.451904,1203.099243 
	C2456.817871,1204.312622 2458.765137,1205.048828 2460.000000,1206.000000 
M1171.840454,1475.000000 
	C1171.840454,1493.838989 1171.840454,1512.678101 1171.840454,1531.652832 
	C1191.502319,1531.652832 1209.726929,1531.652832 1229.057495,1531.652832 
	C1229.057495,1518.372803 1229.057495,1505.451294 1229.057495,1492.529663 
	C1229.057495,1479.202881 1228.977417,1465.875366 1229.080566,1452.549316 
	C1229.179077,1439.820557 1228.632202,1427.055908 1229.493408,1413.064819 
	C1232.402588,1414.722168 1233.817261,1415.458618 1235.162720,1416.304932 
	C1256.524048,1429.739014 1280.161377,1433.167480 1304.394409,1429.412842 
	C1384.813843,1416.952881 1425.024170,1331.368286 1385.490112,1260.699951 
	C1368.242798,1229.870117 1339.807251,1214.799194 1305.232788,1209.289673 
	C1236.625244,1198.357056 1169.983398,1251.729492 1171.625977,1324.077637 
	C1172.752441,1373.694580 1171.840942,1423.357544 1171.840454,1475.000000 
M664.526367,1220.434692 
	C638.784546,1207.918701 611.809631,1204.457642 583.802429,1210.029907 
	C534.466614,1219.846069 496.144470,1263.181519 493.403046,1312.642456 
	C490.091583,1372.387207 524.639771,1420.449707 583.625183,1428.935547 
	C611.916077,1433.005493 638.816345,1429.358887 661.997314,1410.617065 
	C662.825378,1409.947632 664.136475,1409.875732 665.573425,1409.412231 
	C665.840393,1415.030151 666.070923,1419.881958 666.303162,1424.769653 
	C685.180542,1424.769653 703.285278,1424.769653 721.357483,1424.769653 
	C721.592834,1423.032471 721.842163,1422.048218 721.842712,1421.063599 
	C721.862610,1385.077637 722.864563,1349.056152 721.592712,1313.115112 
	C720.159729,1272.620605 702.117493,1241.077881 664.526367,1220.434692 
M1452.043701,1385.621582 
	C1452.043701,1392.286499 1451.988892,1398.951904 1452.059326,1405.616089 
	C1452.127808,1412.102905 1452.324707,1418.588501 1452.454834,1424.594604 
	C1454.035034,1425.110962 1454.342163,1425.299072 1454.649414,1425.299561 
	C1503.299561,1425.380615 1551.970215,1426.353271 1600.593506,1425.243286 
	C1643.147705,1424.271851 1673.051392,1382.553711 1662.110840,1341.896606 
	C1654.541382,1313.766846 1629.497070,1294.691040 1599.065552,1294.315918 
	C1577.407227,1294.048950 1555.743042,1294.267578 1534.081421,1294.259155 
	C1527.749878,1294.256592 1521.403442,1294.486328 1515.090454,1294.132324 
	C1506.016724,1293.623535 1500.119507,1287.830322 1499.250122,1279.166504 
	C1498.388916,1270.584961 1503.102051,1263.638428 1511.853882,1261.327393 
	C1515.006958,1260.494873 1518.428101,1260.440918 1521.727539,1260.435425 
	C1556.719238,1260.376099 1591.710938,1260.398315 1626.702759,1260.398193 
	C1630.276245,1260.398071 1633.849731,1260.398071 1637.318726,1260.398071 
	C1637.318726,1243.890747 1637.318726,1228.412354 1637.318726,1212.736938 
	C1635.355225,1212.549561 1634.065796,1212.319702 1632.776367,1212.318970 
	C1592.452515,1212.298340 1552.127808,1212.172729 1511.805664,1212.432129 
	C1505.574707,1212.472290 1499.154419,1213.619995 1493.163818,1215.404175 
	C1462.103394,1224.655396 1442.144775,1255.495483 1446.467773,1286.951172 
	C1450.982666,1319.802734 1478.420044,1343.497559 1512.250122,1343.617310 
	C1537.243896,1343.705933 1562.238281,1343.624512 1587.232422,1343.650146 
	C1590.561279,1343.653564 1593.932495,1343.537964 1597.210327,1344.000488 
	C1605.482666,1345.167847 1611.170288,1351.523315 1611.476074,1359.526733 
	C1611.788452,1367.703857 1606.942993,1374.541016 1598.882935,1376.479248 
	C1595.381714,1377.321167 1591.635742,1377.387451 1588.000366,1377.392578 
	C1546.343506,1377.451172 1504.686523,1377.430054 1463.029663,1377.430176 
	C1459.522705,1377.430298 1456.015747,1377.430176 1452.328491,1377.430176 
	C1452.191895,1380.483765 1452.118164,1382.132202 1452.043701,1385.621582 
M1709.155029,1355.877686 
	C1719.772827,1388.384521 1741.210327,1410.618774 1773.183960,1422.453003 
	C1780.922607,1425.317139 1789.116089,1427.261963 1797.267090,1428.653687 
	C1871.637817,1441.353271 1938.943970,1381.434448 1932.001953,1308.142944 
	C1927.840088,1264.204834 1906.017822,1232.790161 1864.669678,1215.905273 
	C1849.370972,1209.657837 1833.302124,1207.452393 1816.812012,1207.598267 
	C1761.537720,1208.086914 1713.857544,1248.480225 1704.915894,1302.978882 
	C1702.076416,1320.285034 1703.769531,1337.501953 1709.155029,1355.877686 
M2202.503662,1288.456665 
	C2195.440674,1259.856689 2179.583984,1237.627930 2153.927246,1222.975830 
	C2127.347412,1207.796509 2098.642822,1204.016602 2068.911621,1210.083496 
	C2018.034912,1220.465088 1976.411865,1263.830933 1977.359619,1320.633057 
	C1977.887695,1352.281860 1977.454224,1383.946777 1977.454224,1415.604370 
	C1977.454224,1418.774780 1977.454224,1421.945068 1977.454224,1424.919434 
	C1997.112671,1424.919434 2015.314209,1424.919434 2034.247681,1424.919434 
	C2034.247681,1421.032349 2034.247803,1417.751831 2034.247803,1414.471313 
	C2034.248535,1384.479858 2034.143555,1354.487915 2034.331177,1324.497559 
	C2034.372559,1317.872803 2034.835205,1311.128906 2036.157227,1304.655029 
	C2041.347168,1279.241577 2062.776123,1261.404785 2089.769287,1260.674438 
	C2119.824219,1259.861328 2139.719482,1277.204346 2145.959473,1299.675537 
	C2148.153320,1307.576538 2148.937012,1316.074463 2149.033936,1324.315430 
	C2149.385986,1354.302856 2149.174561,1384.296753 2149.175293,1414.288208 
	C2149.175537,1417.858521 2149.175537,1421.428955 2149.175537,1425.003906 
	C2168.648438,1425.003906 2186.856445,1425.003906 2206.055420,1425.003906 
	C2206.055420,1421.267334 2206.055664,1418.018555 2206.055420,1414.769775 
	C2206.055176,1383.112183 2206.296387,1351.451660 2205.912354,1319.798706 
	C2205.791992,1309.877197 2203.989014,1299.976318 2202.503662,1288.456665 
M357.071747,1209.948608 
	C339.506073,1213.644897 323.634888,1221.054321 309.551025,1232.128052 
	C249.856415,1279.064209 258.419861,1355.719360 293.304901,1394.525513 
	C329.169678,1434.421509 404.471039,1446.082275 452.452911,1403.021362 
	C454.589905,1401.103638 456.464661,1398.893555 458.915283,1396.348511 
	C446.135925,1383.920776 433.832672,1371.956055 421.603577,1360.063354 
	C390.997528,1386.458008 357.875885,1378.413574 340.311066,1361.023560 
	C319.751831,1340.668823 317.341980,1305.183594 335.088165,1282.296143 
	C343.367828,1271.617798 354.214417,1264.900269 367.402649,1262.067261 
	C388.051483,1257.631592 406.146820,1263.547241 420.660980,1275.114258 
	C433.558441,1262.249634 445.889618,1249.949829 458.440948,1237.430420 
	C430.879181,1210.560181 396.740692,1203.469849 357.071747,1209.948608 
M916.093384,1285.000000 
	C916.093384,1331.562012 916.093384,1378.124023 916.093384,1425.209229 
	C935.548096,1425.209229 954.011353,1425.209229 973.023560,1425.209229 
	C973.023560,1301.293457 973.023560,1177.852905 973.023560,1054.459717 
	C960.504395,1052.757446 923.506714,1053.216309 916.093384,1055.216919 
	C916.093384,1131.071777 916.093384,1207.035889 916.093384,1285.000000 
M789.532593,1236.999878 
	C789.532593,1299.568359 789.532593,1362.136841 789.532593,1425.096802 
	C808.948364,1425.096802 827.398254,1425.096802 845.872925,1425.096802 
	C845.872925,1301.035156 845.872925,1177.595215 845.872925,1054.334717 
	C826.738220,1054.334717 808.288391,1054.334717 789.532532,1054.334717 
	C789.532532,1115.053589 789.532532,1175.026733 789.532593,1236.999878 
M1044.798950,1352.999634 
	C1044.932251,1376.609863 1045.063599,1400.220093 1045.223145,1423.830200 
	C1045.225098,1424.099976 1045.582153,1424.375000 1045.790283,1424.634155 
	C1045.989380,1424.881958 1046.210205,1425.111938 1046.147461,1425.041260 
	C1064.905151,1425.041260 1083.328247,1425.041260 1101.560547,1425.041260 
	C1101.560547,1354.004517 1101.560547,1283.671143 1101.560547,1213.631348 
	C1082.347900,1213.631348 1063.877563,1213.631348 1044.799194,1213.631348 
	C1044.799194,1259.911743 1044.799194,1305.455566 1044.798950,1352.999634 
M1068.369141,1048.999023 
	C1064.925903,1050.172974 1061.258789,1050.921753 1058.078613,1052.595581 
	C1045.118896,1059.416504 1038.553223,1070.278320 1039.180664,1084.984741 
	C1039.802124,1099.556396 1049.067261,1111.658447 1062.749268,1116.521973 
	C1076.217651,1121.309570 1090.553589,1117.786499 1100.101074,1107.342529 
	C1109.615845,1096.934326 1112.105347,1080.273193 1105.465210,1067.335327 
	C1098.100342,1052.985840 1085.689819,1047.540649 1068.369141,1048.999023 
z"/>
<path fill="#121110" opacity="1.000000" stroke="none" 
	d="
M1171.840454,1474.000000 
	C1171.840942,1423.357544 1172.752441,1373.694580 1171.625977,1324.077637 
	C1169.983398,1251.729492 1236.625244,1198.357056 1305.232788,1209.289673 
	C1339.807251,1214.799194 1368.242798,1229.870117 1385.490112,1260.699951 
	C1425.024170,1331.368286 1384.813843,1416.952881 1304.394409,1429.412842 
	C1280.161377,1433.167480 1256.524048,1429.739014 1235.162720,1416.304932 
	C1233.817261,1415.458618 1232.402588,1414.722168 1229.493408,1413.064819 
	C1228.632202,1427.055908 1229.179077,1439.820557 1229.080566,1452.549316 
	C1228.977417,1465.875366 1229.057495,1479.202881 1229.057495,1492.529663 
	C1229.057495,1505.451294 1229.057495,1518.372803 1229.057495,1531.652832 
	C1209.726929,1531.652832 1191.502319,1531.652832 1171.840454,1531.652832 
	C1171.840454,1512.678101 1171.840454,1493.838989 1171.840454,1474.000000 
M1233.712280,1295.199219 
	C1232.585938,1299.021973 1231.141846,1302.782593 1230.382568,1306.677002 
	C1223.189697,1343.566528 1248.280273,1376.937988 1284.408447,1377.539429 
	C1332.383545,1378.338257 1354.642944,1331.912598 1338.071045,1293.393677 
	C1332.605713,1280.690186 1323.316895,1271.464233 1310.469849,1265.892578 
	C1287.608398,1255.978149 1250.546875,1259.358154 1233.712280,1295.199219 
z"/>
<path fill="#121110" opacity="1.000000" stroke="none" 
	d="
M665.163879,1220.813721 
	C702.117493,1241.077881 720.159729,1272.620605 721.592712,1313.115112 
	C722.864563,1349.056152 721.862610,1385.077637 721.842712,1421.063599 
	C721.842163,1422.048218 721.592834,1423.032471 721.357483,1424.769653 
	C703.285278,1424.769653 685.180542,1424.769653 666.303162,1424.769653 
	C666.070923,1419.881958 665.840393,1415.030151 665.573425,1409.412231 
	C664.136475,1409.875732 662.825378,1409.947632 661.997314,1410.617065 
	C638.816345,1429.358887 611.916077,1433.005493 583.625183,1428.935547 
	C524.639771,1420.449707 490.091583,1372.387207 493.403046,1312.642456 
	C496.144470,1263.181519 534.466614,1219.846069 583.802429,1210.029907 
	C611.809631,1204.457642 638.784546,1207.918701 665.163879,1220.813721 
M661.373169,1339.754639 
	C664.501648,1330.434937 665.445251,1320.856079 664.219788,1311.145020 
	C661.290588,1287.932617 649.533569,1271.148926 626.895264,1263.897339 
	C603.356934,1256.357300 581.555908,1260.496216 564.834290,1279.384644 
	C548.012817,1298.385742 545.531799,1320.822754 555.639709,1343.809814 
	C565.476624,1366.180664 583.956909,1377.300903 608.049866,1377.068604 
	C633.009277,1376.828003 651.080444,1364.798950 661.373169,1339.754639 
z"/>
<path fill="#131110" opacity="1.000000" stroke="none" 
	d="
M1452.044067,1384.701050 
	C1452.118164,1382.132202 1452.191895,1380.483765 1452.328491,1377.430176 
	C1456.015747,1377.430176 1459.522705,1377.430298 1463.029663,1377.430176 
	C1504.686523,1377.430054 1546.343506,1377.451172 1588.000366,1377.392578 
	C1591.635742,1377.387451 1595.381714,1377.321167 1598.882935,1376.479248 
	C1606.942993,1374.541016 1611.788452,1367.703857 1611.476074,1359.526733 
	C1611.170288,1351.523315 1605.482666,1345.167847 1597.210327,1344.000488 
	C1593.932495,1343.537964 1590.561279,1343.653564 1587.232422,1343.650146 
	C1562.238281,1343.624512 1537.243896,1343.705933 1512.250122,1343.617310 
	C1478.420044,1343.497559 1450.982666,1319.802734 1446.467773,1286.951172 
	C1442.144775,1255.495483 1462.103394,1224.655396 1493.163818,1215.404175 
	C1499.154419,1213.619995 1505.574707,1212.472290 1511.805664,1212.432129 
	C1552.127808,1212.172729 1592.452515,1212.298340 1632.776367,1212.318970 
	C1634.065796,1212.319702 1635.355225,1212.549561 1637.318726,1212.736938 
	C1637.318726,1228.412354 1637.318726,1243.890747 1637.318726,1260.398071 
	C1633.849731,1260.398071 1630.276245,1260.398071 1626.702759,1260.398193 
	C1591.710938,1260.398315 1556.719238,1260.376099 1521.727539,1260.435425 
	C1518.428101,1260.440918 1515.006958,1260.494873 1511.853882,1261.327393 
	C1503.102051,1263.638428 1498.388916,1270.584961 1499.250122,1279.166504 
	C1500.119507,1287.830322 1506.016724,1293.623535 1515.090454,1294.132324 
	C1521.403442,1294.486328 1527.749878,1294.256592 1534.081421,1294.259155 
	C1555.743042,1294.267578 1577.407227,1294.048950 1599.065552,1294.315918 
	C1629.497070,1294.691040 1654.541382,1313.766846 1662.110840,1341.896606 
	C1673.051392,1382.553711 1643.147705,1424.271851 1600.593506,1425.243286 
	C1551.970215,1426.353271 1503.299561,1425.380615 1454.649414,1425.299561 
	C1454.342163,1425.299072 1454.035034,1425.110962 1452.454834,1424.594604 
	C1452.324707,1418.588501 1452.127808,1412.102905 1452.059326,1405.616089 
	C1451.988892,1398.951904 1452.043701,1392.286499 1452.044067,1384.701050 
z"/>
<path fill="#121110" opacity="1.000000" stroke="none" 
	d="
M1708.871582,1355.128662 
	C1703.769531,1337.501953 1702.076416,1320.285034 1704.915894,1302.978882 
	C1713.857544,1248.480225 1761.537720,1208.086914 1816.812012,1207.598267 
	C1833.302124,1207.452393 1849.370972,1209.657837 1864.669678,1215.905273 
	C1906.017822,1232.790161 1927.840088,1264.204834 1932.001953,1308.142944 
	C1938.943970,1381.434448 1871.637817,1441.353271 1797.267090,1428.653687 
	C1789.116089,1427.261963 1780.922607,1425.317139 1773.183960,1422.453003 
	C1741.210327,1410.618774 1719.772827,1388.384521 1708.871582,1355.128662 
M1760.665161,1319.005493 
	C1760.817993,1320.998169 1760.903687,1322.998657 1761.133545,1324.982422 
	C1764.705078,1355.805664 1787.922729,1377.165283 1817.976562,1377.297729 
	C1848.588013,1377.432617 1872.027832,1355.764648 1875.180908,1324.417480 
	C1878.221436,1294.187866 1859.285645,1267.344727 1831.135742,1261.979004 
	C1799.401978,1255.930420 1771.419556,1272.132690 1763.227295,1301.567627 
	C1761.812256,1306.651978 1761.552734,1312.058105 1760.665161,1319.005493 
z"/>
<path fill="#12100F" opacity="1.000000" stroke="none" 
	d="
M2202.729980,1289.261230 
	C2203.989014,1299.976318 2205.791992,1309.877197 2205.912354,1319.798706 
	C2206.296387,1351.451660 2206.055176,1383.112183 2206.055420,1414.769775 
	C2206.055664,1418.018555 2206.055420,1421.267334 2206.055420,1425.003906 
	C2186.856445,1425.003906 2168.648438,1425.003906 2149.175537,1425.003906 
	C2149.175537,1421.428955 2149.175537,1417.858521 2149.175293,1414.288208 
	C2149.174561,1384.296753 2149.385986,1354.302856 2149.033936,1324.315430 
	C2148.937012,1316.074463 2148.153320,1307.576538 2145.959473,1299.675537 
	C2139.719482,1277.204346 2119.824219,1259.861328 2089.769287,1260.674438 
	C2062.776123,1261.404785 2041.347168,1279.241577 2036.157227,1304.655029 
	C2034.835205,1311.128906 2034.372559,1317.872803 2034.331177,1324.497559 
	C2034.143555,1354.487915 2034.248535,1384.479858 2034.247803,1414.471313 
	C2034.247803,1417.751831 2034.247681,1421.032349 2034.247681,1424.919434 
	C2015.314209,1424.919434 1997.112671,1424.919434 1977.454224,1424.919434 
	C1977.454224,1421.945068 1977.454224,1418.774780 1977.454224,1415.604370 
	C1977.454224,1383.946777 1977.887695,1352.281860 1977.359619,1320.633057 
	C1976.411865,1263.830933 2018.034912,1220.465088 2068.911621,1210.083496 
	C2098.642822,1204.016602 2127.347412,1207.796509 2153.927246,1222.975830 
	C2179.583984,1237.627930 2195.440674,1259.856689 2202.729980,1289.261230 
z"/>
<path fill="#121110" opacity="1.000000" stroke="none" 
	d="
M357.927612,1209.805298 
	C396.740692,1203.469849 430.879181,1210.560181 458.440948,1237.430420 
	C445.889618,1249.949829 433.558441,1262.249634 420.660980,1275.114258 
	C406.146820,1263.547241 388.051483,1257.631592 367.402649,1262.067261 
	C354.214417,1264.900269 343.367828,1271.617798 335.088165,1282.296143 
	C317.341980,1305.183594 319.751831,1340.668823 340.311066,1361.023560 
	C357.875885,1378.413574 390.997528,1386.458008 421.603577,1360.063354 
	C433.832672,1371.956055 446.135925,1383.920776 458.915283,1396.348511 
	C456.464661,1398.893555 454.589905,1401.103638 452.452911,1403.021362 
	C404.471039,1446.082275 329.169678,1434.421509 293.304901,1394.525513 
	C258.419861,1355.719360 249.856415,1279.064209 309.551025,1232.128052 
	C323.634888,1221.054321 339.506073,1213.644897 357.927612,1209.805298 
z"/>
<path fill="#131211" opacity="1.000000" stroke="none" 
	d="
M916.093384,1284.000000 
	C916.093384,1207.035889 916.093384,1131.071777 916.093384,1055.216919 
	C923.506714,1053.216309 960.504395,1052.757446 973.023560,1054.459717 
	C973.023560,1177.852905 973.023560,1301.293457 973.023560,1425.209229 
	C954.011353,1425.209229 935.548096,1425.209229 916.093384,1425.209229 
	C916.093384,1378.124023 916.093384,1331.562012 916.093384,1284.000000 
z"/>
<path fill="#100F0E" opacity="1.000000" stroke="none" 
	d="
M789.532593,1235.999756 
	C789.532532,1175.026733 789.532532,1115.053589 789.532532,1054.334717 
	C808.288391,1054.334717 826.738220,1054.334717 845.872925,1054.334717 
	C845.872925,1177.595215 845.872925,1301.035156 845.872925,1425.096802 
	C827.398254,1425.096802 808.948364,1425.096802 789.532593,1425.096802 
	C789.532593,1362.136841 789.532593,1299.568359 789.532593,1235.999756 
z"/>
<path fill="#151412" opacity="1.000000" stroke="none" 
	d="
M1044.799072,1351.999512 
	C1044.799194,1305.455566 1044.799194,1259.911743 1044.799194,1213.631348 
	C1063.877563,1213.631348 1082.347900,1213.631348 1101.560547,1213.631348 
	C1101.560547,1283.671143 1101.560547,1354.004517 1101.560547,1425.041260 
	C1083.328247,1425.041260 1064.905151,1425.041260 1046.147461,1425.041260 
	C1046.210205,1425.111938 1045.989380,1424.881958 1045.790283,1424.634155 
	C1045.582153,1424.375000 1045.225098,1424.099976 1045.223145,1423.830200 
	C1045.063599,1400.220093 1044.932251,1376.609863 1044.799072,1351.999512 
z"/>
<path fill="#131211" opacity="1.000000" stroke="none" 
	d="
M1069.183838,1048.829102 
	C1085.689819,1047.540649 1098.100342,1052.985840 1105.465210,1067.335327 
	C1112.105347,1080.273193 1109.615845,1096.934326 1100.101074,1107.342529 
	C1090.553589,1117.786499 1076.217651,1121.309570 1062.749268,1116.521973 
	C1049.067261,1111.658447 1039.802124,1099.556396 1039.180664,1084.984741 
	C1038.553223,1070.278320 1045.118896,1059.416504 1058.078613,1052.595581 
	C1061.258789,1050.921753 1064.925903,1050.172974 1069.183838,1048.829102 
z"/>
<path fill="#EFEAE8" opacity="1.000000" stroke="none" 
	d="
M1234.010132,1294.481934 
	C1250.546875,1259.358154 1287.608398,1255.978149 1310.469849,1265.892578 
	C1323.316895,1271.464233 1332.605713,1280.690186 1338.071045,1293.393677 
	C1354.642944,1331.912598 1332.383545,1378.338257 1284.408447,1377.539429 
	C1248.280273,1376.937988 1223.189697,1343.566528 1230.382568,1306.677002 
	C1231.141846,1302.782593 1232.585938,1299.021973 1234.010132,1294.481934 
z"/>
<path fill="#EFEAE8" opacity="1.000000" stroke="none" 
	d="
M661.045044,1340.484253 
	C651.080444,1364.798950 633.009277,1376.828003 608.049866,1377.068604 
	C583.956909,1377.300903 565.476624,1366.180664 555.639709,1343.809814 
	C545.531799,1320.822754 548.012817,1298.385742 564.834290,1279.384644 
	C581.555908,1260.496216 603.356934,1256.357300 626.895264,1263.897339 
	C649.533569,1271.148926 661.290588,1287.932617 664.219788,1311.145020 
	C665.445251,1320.856079 664.501648,1330.434937 661.045044,1340.484253 
z"/>
<path fill="#EFEAE8" opacity="1.000000" stroke="none" 
	d="
M1760.712402,1318.160522 
	C1761.552734,1312.058105 1761.812256,1306.651978 1763.227295,1301.567627 
	C1771.419556,1272.132690 1799.401978,1255.930420 1831.135742,1261.979004 
	C1859.285645,1267.344727 1878.221436,1294.187866 1875.180908,1324.417480 
	C1872.027832,1355.764648 1848.588013,1377.432617 1817.976562,1377.297729 
	C1787.922729,1377.165283 1764.705078,1355.805664 1761.133545,1324.982422 
	C1760.903687,1322.998657 1760.817993,1320.998169 1760.712402,1318.160522 
z"/>
</svg>