<?xml version="1.0" standalone="no"?>
<!DOCTYPE svg PUBLIC "-//W3C//DTD SVG 20010904//EN"
 "http://www.w3.org/TR/2001/REC-SVG-20010904/DTD/svg10.dtd">
<svg version="1.0" xmlns="http://www.w3.org/2000/svg"
 width="2560.000000pt" height="2560.000000pt" viewBox="0 0 2560.000000 2560.000000"
 preserveAspectRatio="xMidYMid meet">

<g transform="translate(0.000000,2560.000000) scale(0.100000,-0.100000)"
fill="#0b0b0b" stroke="none">
<path d="M10609 15125 c-98 -36 -157 -81 -204 -155 -76 -120 -58 -299 41 -409
80 -89 175 -127 293 -119 87 6 150 36 217 103 68 68 97 141 97 250 1 70 -3 89
-30 145 -35 73 -65 109 -125 146 -81 52 -209 69 -289 39z"/>
<path d="M7860 13230 l0 -1860 285 0 285 0 0 1860 0 1860 -285 0 -285 0 0
-1860z"/>
<path d="M9130 13230 l0 -1860 285 0 285 0 0 1860 0 1860 -285 0 -285 0 0
-1860z"/>
<path d="M3594 13535 c-379 -58 -731 -328 -878 -674 -70 -162 -81 -222 -80
-441 0 -179 2 -203 27 -293 90 -335 323 -599 632 -718 376 -145 777 -108 1086
102 65 43 169 136 169 149 0 4 -83 87 -185 185 l-185 177 -53 -40 c-114 -88
-274 -139 -400 -127 -253 24 -451 190 -512 430 -19 75 -19 221 0 304 70 297
371 481 679 416 82 -17 179 -61 248 -112 l50 -36 186 186 186 186 -29 32 c-93
98 -296 213 -440 249 -158 40 -346 50 -501 25z"/>
<path d="M5864 13536 c-371 -61 -696 -300 -855 -631 -27 -55 -61 -140 -76
-190 -26 -86 -27 -100 -27 -295 0 -189 2 -213 26 -301 57 -211 147 -368 290
-505 170 -163 366 -253 618 -284 276 -33 545 31 719 171 l60 48 3 -87 3 -87
278 -3 278 -2 -3 637 -4 638 -26 98 c-31 111 -96 256 -156 344 -151 223 -403
382 -694 438 -114 22 -332 28 -434 11z m301 -531 c217 -46 379 -203 430 -416
19 -82 19 -228 0 -304 -51 -202 -196 -354 -390 -411 -82 -24 -240 -24 -319 0
-104 31 -177 74 -251 150 -112 112 -165 245 -165 409 0 113 14 175 61 274 110
231 371 354 634 298z"/>
<path d="M12750 13543 c-320 -25 -630 -189 -826 -437 -79 -100 -176 -290 -204
-403 -38 -153 -41 -252 -38 -1343 l3 -1055 279 -3 c217 -2 281 1 288 10 4 7 8
275 8 596 0 320 2 582 5 582 3 0 40 -20 83 -45 142 -82 314 -125 507 -125 475
0 908 312 1059 764 43 129 59 252 53 401 -6 158 -26 259 -78 390 -56 139 -118
235 -224 341 -191 193 -420 296 -725 323 -63 6 -122 10 -130 9 -8 -1 -35 -3
-60 -5z m250 -553 c202 -56 359 -239 390 -455 30 -213 -26 -392 -168 -531
-127 -125 -350 -184 -527 -139 -209 53 -372 215 -420 416 -19 82 -19 226 0
307 44 185 191 342 378 402 87 28 247 28 347 0z"/>
<path d="M17985 13540 c-158 -25 -334 -93 -475 -184 -85 -55 -224 -187 -291
-276 -187 -248 -256 -563 -194 -888 84 -439 414 -761 867 -847 414 -78 807 45
1089 342 94 98 148 178 206 299 155 327 132 729 -60 1057 -59 102 -237 277
-343 339 -103 60 -244 115 -359 140 -105 22 -349 32 -440 18z m335 -546 c254
-75 418 -322 396 -600 -19 -257 -170 -448 -412 -520 -91 -28 -239 -25 -333 6
-177 57 -305 185 -368 367 -36 105 -39 262 -6 368 62 198 220 345 419 389 83
19 223 14 304 -10z"/>
<path d="M20708 13535 c-418 -68 -783 -367 -912 -746 -53 -157 -56 -202 -56
-835 l0 -584 285 0 284 0 3 598 3 597 27 74 c100 273 366 423 655 368 218 -41
374 -186 440 -409 14 -45 17 -143 20 -641 l5 -587 281 2 282 3 3 525 c2 325
-1 571 -8 646 -46 508 -357 867 -847 974 -127 28 -343 35 -465 15z"/>
<path d="M10415 13488 c-3 -7 -4 -485 -3 -1063 l3 -1050 288 -3 287 -2 -2
1062 -3 1063 -283 3 c-221 2 -284 0 -287 -10z"/>
<path d="M14970 13490 c-243 -43 -462 -246 -524 -486 -20 -79 -21 -241 -1
-319 54 -215 211 -384 427 -463 l73 -27 510 -5 c492 -5 511 -6 545 -26 108
-63 103 -232 -10 -291 l-43 -23 -729 0 -728 0 0 -240 0 -240 755 0 c648 0 767
2 833 16 314 64 549 367 529 681 -18 274 -181 488 -442 580 l-80 28 -511 5
-511 5 -36 28 c-48 36 -68 77 -69 136 0 76 33 126 105 156 31 13 121 15 657
15 l620 0 0 240 0 240 -662 -1 c-365 -1 -683 -5 -708 -9z"/>
</g>
</svg>
