<?xml version="1.0" standalone="no"?>
<!DOCTYPE svg PUBLIC "-//W3C//DTD SVG 20010904//EN"
 "http://www.w3.org/TR/2001/REC-SVG-20010904/DTD/svg10.dtd">
<svg version="1.0" xmlns="http://www.w3.org/2000/svg"
 width="496.000000pt" height="216.000000pt" viewBox="0 0 496.000000 216.000000"
 preserveAspectRatio="xMidYMid meet">

<g transform="translate(0.000000,216.000000) scale(0.100000,-0.100000)"
fill="#f6f2f2" stroke="none">
<path d="M0 1080 l0 -1080 2480 0 2480 0 0 1080 0 1080 -2480 0 -2480 0 0
-1080z m2567 986 c28 -7 56 -17 62 -20 8 -5 11 -99 11 -298 l0 -290 -22 6
c-108 31 -174 11 -209 -61 -22 -46 -22 -46 -4 -100 10 -29 37 -86 60 -126 106
-186 143 -322 131 -484 -12 -168 -74 -303 -197 -425 -91 -90 -212 -156 -335
-184 -114 -25 -263 -16 -369 23 l-80 30 -3 301 c-1 166 0 302 4 302 3 0 25
-12 50 -26 58 -34 147 -43 192 -20 35 18 62 62 62 100 0 13 -34 94 -75 179
-96 197 -116 273 -116 437 -1 107 3 136 25 205 78 245 283 421 546 469 44 8
213 -3 267 -18z m-987 -29 c0 -7 -128 -306 -285 -666 -157 -359 -285 -654
-285 -657 0 -2 124 -4 275 -4 l275 0 0 -295 0 -295 -735 0 c-404 0 -735 2
-735 5 0 3 433 1005 551 1274 10 24 19 45 19 47 0 2 -132 4 -293 4 -162 0
-296 2 -298 4 -2 2 -3 137 -1 300 l3 296 754 0 c607 0 755 -3 755 -13z m1857
-3 c3 -8 6 -313 7 -676 1 -622 2 -660 19 -673 23 -17 54 -8 70 19 9 16 13 185
15 681 l3 660 304 3 305 2 0 -672 c0 -370 4 -679 9 -686 5 -8 22 -12 42 -10
29 2 35 8 40 33 4 17 7 324 8 683 l1 652 303 -2 302 -3 3 -725 c3 -809 3 -806
-65 -950 -152 -319 -618 -406 -863 -161 -31 31 -63 67 -72 81 l-16 25 -23 -30
c-82 -109 -211 -187 -338 -207 -85 -13 -242 -4 -305 18 -207 72 -321 237 -346
502 -6 60 -10 402 -10 780 l0 672 300 0 c265 0 301 -2 307 -16z"/>
</g>
</svg>
