<?xml version="1.0" encoding="utf-8"?>
<svg version="1.0" width="916.000000pt" height="842.000000pt" viewBox="0 0 916.000000 842.000000" preserveAspectRatio="xMidYMid meet" xmlns="http://www.w3.org/2000/svg">
  <g transform="translate(0.000000,842.000000) scale(0.100000,-0.100000)" fill="#f2ecec" stroke="none">
    <ellipse style="transform-box: fill-box; transform-origin: 50% 50%; stroke: rgb(109, 61, 61); fill: rgb(243, 240, 86);" transform="matrix(0.999844, 0.017651, 0.00491, -1.000069, -72.61522, 8375.273068)" cx="4647.241" cy="-4147.176" rx="4548.591" ry="4196.122"/>
    <rect x="2322.719" y="-3226.482" width="4940.748" height="492.251" style="stroke: rgb(0, 0, 0); fill: rgb(35, 32, 32);" transform="matrix(1, 0, 0, -1, 0, 0)"/>
    <path d="M4192 8389 c-57 -5 -111 -13 -120 -18 -12 -7 -2 -8 33 -5 62 6 182 5 214 -1 52 -10 29 -15 -70 -16 -57 0 -200 -12 -316 -27 -117 -15 -213 -24 -213 -21 0 3 -22 2 -50 -4 -27 -5 -48 -12 -46 -16 2 -3 -15 -6 -37 -7 -44 -1 -126 -16 -212 -40 -99 -27 -430 -136 -435 -144 -3 -4 -39 -17 -80 -30 -71 -22 -122 -43 -265 -110 -33 -15 -84 -38 -114 -50 -30 -12 -77 -34 -105 -50 -153 -83 -323 -184 -397 -235 -46 -31 -100 -68 -119 -81 -34 -23 -77 -52 -121 -84 -12 -8 -49 -37 -83 -65 -33 -27 -79 -63 -101 -80 -108 -80 -428 -399 -542 -541 -45 -56 -88 -108 -96 -115 -51 -52 -290 -416 -357 -544 -29 -55 -72 -136 -95 -180 -23 -44 -63 -134 -90 -200 -26 -66 -51 -124 -55 -130 -12 -17 -87 -256 -105 -335 -22 -99 -47 -180 -55 -180 -4 0 -10 -39 -14 -87 -3 -49 -13 -124 -21 -168 -8 -44 -18 -102 -21 -128 -4 -26 -11 -50 -15 -53 -5 -3 -9 -32 -9 -65 0 -45 -3 -58 -13 -53 -9 6 -9 4 0 -7 16 -17 17 -43 1 -33 -7 4 -8 3 -4 -5 4 -6 2 -19 -5 -27 -9 -11 -11 -84 -6 -319 6 -296 10 -334 40 -356 13 -10 62 -310 60 -371 0 -16 3 -28 7 -28 4 0 7 -6 8 -12 0 -7 12 -50 26 -96 14 -46 27 -97 30 -115 2 -18 8 -44 14 -58 6 -15 8 -29 6 -32 -3 -3 2 -16 10 -29 9 -14 13 -28 9 -32 -4 -4 -3 -10 2 -14 15 -10 35 -49 35 -67 0 -8 10 -36 21 -62 28 -61 32 -71 70 -173 39 -107 49 -129 71 -162 10 -14 18 -33 18 -42 0 -9 3 -16 8 -16 4 0 22 -31 41 -68 18 -37 38 -76 44 -87 52 -99 70 -132 82 -145 7 -8 43 -60 79 -115 89 -135 139 -205 152 -213 5 -4 26 -27 45 -52 89 -116 154 -188 313 -348 164 -166 241 -238 278 -258 9 -5 45 -36 80 -70 62 -60 160 -136 268 -207 30 -20 84 -57 120 -82 67 -47 142 -91 269 -157 41 -21 79 -42 85 -47 27 -20 136 -75 196 -97 36 -14 83 -35 105 -48 52 -30 439 -169 500 -180 11 -2 52 -12 90 -24 177 -52 477 -115 625 -132 52 -5 154 -17 225 -24 321 -36 816 -25 1155 24 80 12 161 23 180 26 34 4 83 14 260 53 377 84 793 242 1158 439 81 44 162 86 180 93 17 8 32 17 32 20 0 7 34 28 110 71 19 11 53 35 75 53 72 58 153 106 158 92 3 -6 6 -2 6 11 1 12 7 22 14 22 7 0 23 9 35 20 12 12 22 19 22 16 0 -2 18 12 40 32 22 20 65 60 97 87 187 164 478 455 563 563 35 45 70 82 77 82 7 0 12 3 11 8 -4 13 13 52 23 52 5 0 9 6 9 14 0 8 9 18 21 21 11 4 18 9 15 12 -8 8 17 52 98 172 41 60 77 118 80 129 5 14 12 19 23 15 13 -5 15 -2 11 15 -6 23 5 37 22 27 5 -3 6 -13 1 -23 -4 -9 -16 -33 -25 -52 -18 -35 -18 -35 1 -12 34 42 250 483 302 618 67 173 116 331 141 456 11 55 24 106 30 113 24 29 80 502 57 488 -7 -4 -5 129 5 332 2 54 -8 268 -17 338 -2 15 1 27 7 27 24 0 -23 426 -53 483 -6 10 -21 69 -34 131 -12 61 -32 129 -43 151 -11 22 -23 62 -27 88 -3 27 -20 81 -36 120 -17 40 -41 101 -54 137 -14 36 -36 87 -50 114 -14 27 -25 55 -25 63 0 7 -12 16 -26 19 -16 4 -23 11 -20 21 3 8 1 11 -4 8 -6 -3 -10 1 -10 10 0 9 4 14 10 10 12 -8 -65 171 -80 185 -3 3 -13 21 -23 40 -16 34 -17 34 -15 7 2 -16 8 -33 15 -39 7 -6 13 -17 13 -24 0 -8 4 -14 9 -14 10 0 24 -30 18 -37 -8 -7 -71 100 -70 119 1 10 -2 16 -8 13 -5 -4 -9 -2 -9 3 0 5 -11 25 -25 45 -13 20 -20 39 -15 42 6 4 10 11 10 16 0 6 -5 7 -11 3 -12 -7 -68 53 -69 74 0 6 -5 12 -11 12 -5 0 -8 4 -5 9 3 5 -2 15 -10 22 -18 14 -60 78 -62 92 0 4 -13 23 -29 41 -15 18 -46 57 -68 86 -22 29 -57 71 -77 93 -21 22 -38 43 -38 48 0 5 -8 9 -17 10 -10 0 -13 3 -6 5 8 4 2 17 -18 39 -17 18 -29 36 -27 38 4 7 -48 47 -62 47 -6 0 -8 5 -5 10 3 6 0 10 -8 10 -8 0 -17 10 -20 23 -4 12 -22 30 -41 41 -19 10 -37 28 -41 40 -5 17 -56 67 -233 226 -9 9 -35 29 -57 45 -22 16 -42 32 -45 35 -21 24 -143 119 -225 176 -234 160 -270 182 -505 306 -30 16 -62 35 -70 41 -23 19 -118 63 -190 88 -36 12 -78 30 -95 39 -45 24 -232 97 -298 115 -31 9 -55 21 -52 26 3 5 0 6 -8 4 -7 -3 -24 -1 -38 5 -22 10 -22 10 -1 6 13 -2 20 0 16 6 -3 5 -16 7 -27 4 -27 -7 -127 22 -133 39 -4 11 -94 31 -116 27 -5 -1 -8 3 -8 9 0 8 -14 10 -40 6 -28 -4 -45 -1 -55 10 -9 8 -23 12 -32 9 -8 -4 -31 -3 -50 0 -26 5 -31 9 -21 16 9 6 6 7 -10 3 -30 -9 -84 4 -76 17 5 8 -3 9 -25 5 -20 -4 -30 -3 -26 3 4 6 -7 11 -24 11 -105 5 -136 7 -231 18 -70 8 -108 17 -113 27 -4 8 -20 13 -35 13 l-27 -1 30 -9 c21 -6 11 -7 -34 -4 -35 3 -112 5 -170 6 -76 0 -99 3 -83 10 24 9 150 13 215 5 20 -2 39 -1 42 4 2 4 -30 10 -73 14 -142 11 -666 15 -770 5z m228 -437 c0 -5 -15 -9 -32 -10 -18 0 -34 -5 -36 -11 -2 -5 -9 -8 -17 -5 -8 3 -11 12 -8 20 6 15 93 21 93 6z m17 -34 c-3 -8 -6 -5 -6 6 -1 11 2 17 5 13 3 -3 4 -12 1 -19z m191 0 c6 -6 34 -13 61 -14 28 -1 54 -5 58 -7 5 -3 8 -36 8 -74 -1 -59 2 -70 22 -86 23 -18 31 -61 14 -71 -5 -3 -12 -27 -15 -53 -4 -27 -9 -66 -12 -88 -3 -22 -2 -35 3 -28 11 15 83 -6 83 -24 0 -21 -61 -83 -81 -83 -21 0 -22 -1 -13 -24 3 -9 15 -16 25 -16 15 0 19 -7 19 -35 0 -44 17 -52 70 -31 36 14 42 14 70 -2 29 -16 30 -20 26 -65 -5 -45 -4 -47 18 -41 l23 5 4 -193 c7 -265 -3 -674 -16 -671 -12 3 -21 116 -30 383 -4 113 -9 207 -11 209 -2 2 -4 -44 -4 -104 l0 -107 -29 5 c-26 5 -29 3 -35 -25 -9 -45 -7 -58 7 -58 8 0 11 -16 9 -55 -2 -31 -1 -63 2 -72 4 -9 9 -90 12 -180 5 -159 5 -163 -15 -163 -13 0 -26 12 -36 30 -9 17 -20 30 -25 30 -6 0 -10 -13 -10 -30 0 -24 -4 -30 -22 -30 -36 0 -49 14 -49 51 3 217 10 319 24 356 23 60 33 463 11 463 -12 0 -14 -36 -14 -230 l0 -229 -43 -26 c-50 -29 -72 -32 -81 -10 -12 31 -26 13 -26 -33 0 -55 -26 -152 -40 -152 -6 0 -11 30 -11 68 -1 37 -4 117 -8 177 l-6 110 -8 -90 c-5 -49 -13 -95 -19 -102 -13 -16 -71 -27 -104 -19 l-26 7 8 159 c6 145 5 160 -10 160 -14 0 -16 -15 -16 -114 0 -109 -1 -114 -22 -119 -12 -4 -23 -5 -24 -4 -1 1 -4 81 -6 177 -3 105 -9 184 -16 195 -11 20 -11 20 -12 0 0 -11 -2 -103 -4 -205 l-4 -185 -27 -3 c-20 -3 -28 2 -32 17 -3 12 -9 21 -15 21 -5 0 -8 -89 -6 -217 l3 -218 -25 0 c-23 0 -25 4 -28 53 -3 48 -5 51 -23 42 -14 -8 -19 -21 -19 -55 0 -38 -3 -45 -20 -45 -20 0 -20 7 -20 334 0 284 2 335 15 346 10 8 15 31 15 71 0 71 12 70 -187 28 -436 -90 -818 -231 -1163 -431 -743 -429 -1233 -1055 -1375 -1755 -181 -899 256 -1846 1119 -2422 126 -84 268 -171 280 -171 3 0 6 33 6 73 0 39 3 89 6 110 6 31 9 35 21 25 11 -9 17 -8 29 4 14 14 13 19 -5 54 -27 51 -27 60 8 95 42 42 87 40 105 -3 14 -32 12 -76 -3 -91 -5 -5 -26 -15 -47 -22 -22 -8 -34 -14 -27 -15 24 0 55 -61 64 -127 5 -37 16 -74 23 -82 12 -14 12 -21 0 -50 -21 -51 -18 -59 36 -86 l50 -25 0 44 c0 28 19 97 51 188 28 79 54 163 58 188 7 53 27 62 64 28 28 -24 37 -41 24 -45 -4 -2 -6 -1 -4 1 4 8 -47 56 -60 56 -27 0 -13 -38 21 -54 25 -12 36 -24 38 -44 2 -19 9 -28 26 -30 21 -3 22 -7 23 -135 1 -73 2 -136 4 -142 1 -5 3 -44 3 -86 l2 -76 123 -41 c273 -92 589 -164 894 -204 227 -29 797 -32 1023 -5 589 71 1150 251 1600 512 305 176 512 336 730 561 269 278 456 587 575 949 l52 160 -1 160 c-1 88 -7 207 -15 264 l-14 104 32 26 31 26 0 227 c0 198 -2 227 -15 222 -9 -4 -15 -19 -15 -39 0 -41 -17 -88 -29 -81 -5 3 -12 21 -15 40 -5 28 0 46 29 98 19 36 35 72 35 80 0 26 33 59 64 62 20 2 34 12 43 31 15 27 14 29 -16 52 -45 36 -42 71 12 128 24 25 53 45 64 45 28 0 61 -29 68 -62 6 -22 3 -27 -17 -30 -13 -2 -24 -11 -26 -22 -4 -16 0 -18 27 -13 36 7 36 6 16 -33 -9 -18 -26 -32 -43 -36 -15 -3 -33 -7 -39 -10 -22 -6 -14 -37 17 -69 26 -27 32 -44 42 -116 7 -55 18 -91 30 -105 18 -21 18 -22 -2 -73 -17 -45 -20 -74 -20 -222 0 -136 -3 -176 -16 -201 -11 -21 -18 -27 -24 -19 -16 26 -20 -25 -20 -230 0 -161 -3 -218 -15 -245 -8 -19 -12 -41 -9 -49 4 -8 3 -27 -1 -43 l-8 -27 -18 40 c-10 22 -19 49 -19 59 0 42 -9 6 -19 -84 -55 -462 -238 -911 -536 -1309 -555 -743 -1468 -1270 -2515 -1450 -284 -50 -458 -63 -805 -63 -296 0 -351 3 -530 26 -447 58 -693 117 -1085 263 -690 256 -1291 692 -1686 1223 -406 545 -584 1124 -545 1772 62 1018 757 1954 1854 2494 181 89 431 191 564 229 46 13 120 35 165 49 208 62 537 120 921 161 l57 6 2 97 c2 125 1 132 -19 154 -9 10 -13 21 -10 24 3 4 2 14 -3 24 -12 23 -1 63 16 56 10 -4 14 3 14 19 0 14 4 25 9 25 5 0 9 -12 8 -27 0 -16 4 -72 8 -125 6 -72 5 -98 -4 -98 -6 0 -11 -4 -11 -10 0 -5 7 -10 14 -10 11 0 16 -14 18 -47 2 -28 8 -48 17 -51 8 -3 12 1 9 9 -3 8 -1 22 3 31 5 9 6 19 1 22 -4 2 -7 26 -5 53 1 26 4 85 6 130 2 49 9 89 17 98 8 10 13 38 13 67 -1 42 3 51 19 56 12 3 18 12 17 26 -3 42 1 54 20 59 32 8 41 -41 41 -222 0 -168 -7 -204 -32 -184 -20 16 -46 12 -51 -9 -5 -16 -2 -19 21 -17 11 0 20 -40 21 -92 1 -45 2 -47 34 -52 38 -6 39 -5 31 17 -3 9 -14 16 -24 16 -11 0 -22 5 -25 10 -6 9 25 14 70 11 20 -2 20 3 17 220 -2 186 0 225 13 245 8 13 15 35 15 49 0 15 6 25 15 25 8 0 22 14 31 31 11 23 21 30 35 26 27 -7 24 2 -5 13 -21 8 -23 13 -16 42 4 18 12 44 17 57 8 21 6 28 -16 48 -19 16 -22 22 -10 23 8 0 20 -5 27 -12z m-248 -158 c0 -5 -5 -10 -11 -10 -5 0 -7 5 -4 10 3 6 8 10 11 10 2 0 4 -4 4 -10z m-15 -62 c-5 -45 -6 -47 -14 -18 -4 14 -3 31 2 38 14 18 16 15 12 -20z m-83 -110 c6 -15 -1 -38 -11 -38 -3 0 -8 11 -9 25 -2 26 12 35 20 13z m-2 -68 c0 -5 -5 -10 -11 -10 -5 0 -7 5 -4 10 3 6 8 10 11 10 2 0 4 -4 4 -10z m622 -157 c10 -9 18 -24 18 -33 0 -15 -5 -16 -34 -6 -30 9 -33 12 -23 33 12 27 15 28 39 6z m-679 -80 c-7 -2 -19 -2 -25 0 -7 3 -2 5 12 5 14 0 19 -2 13 -5z m-73 -180 c0 -5 -13 -8 -30 -9 -16 -1 -27 3 -24 7 6 11 54 12 54 2z m323 -721 c-2 -43 -8 -103 -12 -136 -7 -52 -6 -59 10 -63 33 -9 20 -23 -21 -23 l-39 0 2 145 c2 152 7 168 47 158 16 -4 18 -14 13 -81z m127 -98 c0 -14 -4 -23 -10 -19 -5 3 -10 15 -10 26 0 10 5 19 10 19 6 0 10 -12 10 -26z m4066 -321 c18 -24 17 -33 -2 -33 -8 0 -13 4 -9 9 3 5 1 12 -5 16 -11 7 -14 25 -4 25 4 0 13 -8 20 -17z m74 -141 c0 -8 14 -44 31 -80 16 -35 28 -67 25 -69 -3 -3 2 -12 10 -20 8 -8 12 -19 9 -24 -4 -5 -2 -9 4 -9 11 0 33 -69 26 -80 -3 -4 2 -13 10 -20 16 -13 20 -40 7 -40 -8 0 -62 111 -62 126 0 4 -15 36 -33 73 -19 36 -39 87 -45 112 -7 26 -15 55 -19 65 -6 18 -6 18 15 0 12 -11 22 -26 22 -34z m190 -532 c7 -25 14 -70 16 -100 1 -30 0 -46 -3 -35 -3 11 -9 25 -13 30 -11 14 -30 89 -37 144 -4 42 -3 44 10 26 7 -11 20 -40 27 -65z m-3973 26 c28 -7 56 -17 62 -20 8 -5 11 -99 11 -298 l0 -290 -22 6 c-109 31 -178 10 -210 -62 -25 -56 -16 -95 52 -216 113 -201 148 -328 136 -493 -12 -168 -74 -303 -197 -425 -91 -90 -212 -156 -335 -184 -114 -25 -263 -16 -369 23 l-80 30 -3 301 c-1 166 0 302 4 302 3 0 25 -12 50 -26 58 -34 147 -43 192 -20 36 18 62 62 62 102 0 15 -34 95 -75 179 -96 193 -116 270 -117 435 0 110 3 135 28 208 35 106 83 186 159 263 113 114 226 174 385 203 44 8 213 -3 267 -18z m-990 -38 c-2 -13 -131 -312 -286 -666 -154 -354 -281 -646 -281 -648 0 -2 124 -4 275 -4 l275 0 0 -295 0 -295 -735 0 c-404 0 -735 2 -735 5 0 3 433 1006 551 1274 11 24 18 46 16 47 -2 2 -136 5 -298 6 -162 2 -293 6 -291 11 1 4 2 138 2 297 l0 290 756 0 756 0 -5 -22z m1860 7 c3 -9 6 -313 7 -675 1 -586 3 -661 17 -675 19 -19 61 -7 75 22 5 10 10 315 12 678 l3 660 304 3 305 2 0 -672 c0 -370 4 -679 9 -686 5 -8 22 -12 42 -10 29 2 35 8 40 33 4 17 7 324 8 683 l1 652 303 -2 302 -3 3 -720 c3 -805 2 -814 -65 -955 -153 -319 -618 -406 -863 -161 -31 31 -63 67 -72 81 l-16 25 -23 -30 c-82 -109 -211 -187 -338 -207 -85 -13 -242 -4 -305 18 -207 72 -321 237 -346 502 -6 60 -10 402 -10 780 l0 672 300 0 c262 0 301 -2 307 -15z m3164 -249 c-1 -4 2 -13 8 -20 22 -27 48 -246 29 -246 -4 0 -5 -7 -2 -15 4 -8 10 -12 16 -9 5 3 4 -3 -4 -15 -13 -21 -13 -20 -20 11 -15 68 -38 204 -40 238 -1 19 -4 39 -6 44 -3 4 -6 27 -7 50 l-3 41 16 -35 c9 -19 15 -39 13 -44z m-711 -362 c0 -13 -5 -24 -10 -24 -13 0 -29 41 -23 58 8 20 33 -6 33 -34z m752 -1070 c1 -82 -19 -177 -35 -167 -6 4 -8 0 -4 -10 3 -9 1 -19 -5 -23 -7 -4 -7 -9 1 -13 8 -5 6 -14 -7 -29 -11 -12 -21 -22 -24 -22 -9 0 -5 35 4 47 5 7 11 24 12 38 2 14 12 35 22 46 12 13 14 19 5 17 -7 -2 -16 3 -19 11 -2 8 0 11 5 8 6 -4 8 4 5 18 -2 14 -1 46 3 72 6 39 9 44 16 28 5 -12 6 3 3 40 -4 50 -3 56 7 35 6 -14 11 -57 11 -96z m-75 -296 c-3 -8 -6 -5 -6 6 -1 11 2 17 5 13 3 -3 4 -12 1 -19z m-2 -50 c6 -24 3 -33 -10 -41 -14 -8 -15 -11 -4 -18 10 -6 11 -9 2 -9 -7 0 -13 -12 -13 -28 0 -15 -7 -38 -16 -50 -8 -12 -13 -22 -9 -22 3 0 -1 -13 -10 -30 -9 -16 -13 -30 -10 -30 4 0 3 -5 -1 -12 -4 -7 -9 -26 -11 -43 -4 -44 -24 -86 -36 -78 -6 3 -7 1 -3 -6 4 -6 2 -18 -4 -26 -6 -8 -9 -19 -5 -25 3 -5 1 -10 -4 -10 -6 0 -11 -7 -11 -15 0 -9 -9 -35 -20 -57 -11 -23 -20 -48 -20 -55 0 -7 -4 -13 -10 -13 -5 0 -10 -6 -10 -12 -1 -7 -9 -31 -20 -53 -11 -22 -19 -50 -20 -63 0 -13 -4 -21 -9 -18 -10 6 -26 -34 -30 -72 0 -7 -5 -10 -11 -7 -5 3 -10 1 -10 -5 0 -6 -4 -9 -9 -6 -5 3 -2 25 6 47 20 60 33 80 44 74 5 -4 8 -3 7 2 -4 16 55 183 65 183 6 0 7 3 4 6 -3 4 -1 16 5 28 16 29 64 164 94 261 13 44 29 94 34 111 6 17 10 38 10 48 0 9 4 15 9 12 5 -4 7 4 3 16 -3 13 -1 19 5 15 6 -4 8 4 5 20 -7 38 15 20 23 -19z m-1985 -58 c22 -22 26 -50 10 -66 -7 -7 -6 -20 5 -40 19 -37 21 -224 3 -242 -15 -15 -95 -16 -104 0 -13 21 -6 238 8 256 10 12 10 16 1 19 -14 5 -17 41 -5 59 8 12 43 33 55 34 4 0 16 -9 27 -20z m-4369 0 c106 0 105 2 53 -115 -52 -117 -52 -112 -5 -117 l41 -4 0 61 c0 34 5 66 12 73 15 15 94 16 104 1 4 -8 9 -8 17 0 16 16 92 14 107 -4 8 -10 11 -42 9 -99 -4 -81 -6 -86 -38 -120 -31 -32 -40 -36 -87 -36 -46 0 -55 4 -78 31 -14 17 -27 36 -27 42 -1 7 -5 -6 -8 -28 l-6 -40 -138 -3 -138 -3 7 27 c4 15 24 66 44 113 l37 86 -36 3 c-49 5 -61 18 -61 66 0 61 19 79 74 71 16 -3 68 -5 117 -5z m2528 -3 l65 -2 10 -42 c6 -23 17 -48 24 -55 18 -18 15 -93 -4 -109 -14 -12 -14 -14 1 -25 12 -9 15 -25 13 -66 -3 -52 -4 -53 -35 -56 -25 -2 -40 5 -72 33 -38 34 -40 40 -52 125 -11 84 -22 109 -35 76 -3 -7 2 -30 10 -51 9 -21 16 -49 16 -64 0 -57 -79 -131 -139 -131 -28 0 -61 34 -61 63 0 35 11 67 24 67 32 1 37 16 17 61 -25 59 -18 101 25 142 43 40 61 48 99 41 17 -2 59 -5 94 -7z m521 -16 c5 -11 10 -29 10 -40 0 -15 6 -21 21 -21 12 0 36 -15 53 -32 31 -31 33 -38 39 -123 3 -49 1 -97 -4 -107 -7 -14 -25 -16 -111 -16 -57 0 -109 5 -115 10 -8 6 -13 34 -13 69 l0 59 -21 -21 c-20 -20 -37 -21 -84 -3 -9 4 -2 -8 15 -25 43 -42 38 -72 -15 -89 -34 -11 -46 -11 -81 3 -22 8 -51 26 -63 39 -26 27 -38 108 -22 148 13 34 86 88 118 88 41 0 94 -31 124 -73 l29 -40 0 71 c0 39 4 82 10 96 8 23 15 26 54 26 35 0 48 -5 56 -19z m1198 -116 c3 -144 -4 -171 -51 -211 -25 -21 -38 -25 -65 -20 -19 3 -43 13 -53 22 -18 16 -20 16 -38 0 -10 -9 -34 -19 -54 -23 -30 -4 -40 0 -73 30 l-39 35 -3 136 c-2 75 -1 143 2 151 5 13 33 15 188 13 l183 -3 3 -130z m-3519 40 c16 -8 40 -28 55 -45 24 -29 26 -39 26 -126 l0 -94 -93 0 c-94 0 -94 0 -130 35 -22 21 -41 52 -48 78 l-11 42 -19 -49 c-10 -27 -31 -62 -46 -78 -24 -25 -34 -28 -73 -26 l-45 3 1 48 c0 35 6 52 22 67 12 12 22 33 22 48 0 57 106 124 145 92 8 -7 15 -21 15 -31 0 -22 15 -25 23 -4 8 18 75 54 105 55 13 0 36 -7 51 -15z m258 0 c20 -14 26 -14 63 1 49 20 86 8 126 -38 23 -29 25 -36 22 -127 l-3 -96 -110 -2 c-64 -1 -115 3 -122 9 -9 7 -13 7 -13 -1 0 -8 -17 -11 -52 -9 l-53 3 -3 94 c-3 104 6 128 61 161 39 24 56 25 84 5z m385 -1 c29 -15 34 -15 59 0 35 21 57 20 96 -4 47 -28 66 -72 65 -151 0 -102 -4 -109 -62 -109 -30 0 -50 5 -53 13 -3 9 -7 9 -18 1 -22 -18 -215 -16 -230 2 -8 10 -10 41 -6 100 5 91 14 110 72 145 37 23 38 23 77 3z m433 -4 c16 -11 42 -36 57 -57 16 -20 28 -31 28 -25 0 25 72 91 105 98 42 7 89 -16 114 -57 23 -37 35 -125 26 -180 l-7 -39 -53 0 c-30 0 -57 5 -60 10 -5 8 -11 8 -20 0 -8 -6 -33 -10 -57 -8 l-43 3 -3 58 c-3 55 -4 58 -25 50 -12 -4 -38 -6 -57 -6 -19 1 -29 -1 -22 -4 7 -2 20 -19 28 -36 16 -29 16 -32 -6 -49 -15 -12 -39 -18 -72 -18 -45 0 -54 4 -89 39 -37 36 -39 42 -39 98 0 54 3 62 33 90 61 58 109 68 162 33z m1586 -3 c40 -27 79 -82 79 -111 0 -31 -19 -46 -58 -46 -34 0 -34 0 -18 -25 9 -13 16 -30 16 -38 0 -19 -44 -37 -92 -37 -35 0 -47 6 -84 44 -39 38 -44 48 -44 89 0 35 6 53 27 78 59 70 116 85 174 46z m292 -27 l38 -40 -3 -93 -3 -92 -108 -2 c-133 -2 -139 2 -131 90 10 119 12 126 57 158 56 41 97 35 150 -21z m878 40 c15 -9 19 -22 19 -65 0 -48 -3 -55 -20 -55 -17 0 -19 -8 -22 -72 l-3 -73 -55 0 -55 0 3 99 c3 108 8 121 67 157 35 22 40 23 66 9z m-3932 -688 c-12 -5 -39 17 -39 30 0 5 11 1 24 -9 13 -10 20 -20 15 -21z m5411 23 c7 -8 8 -15 2 -15 -9 0 -25 -36 -23 -52 1 -5 -3 -8 -9 -8 -5 0 -10 -7 -10 -15 0 -8 -7 -15 -16 -15 -11 0 -14 5 -9 18 4 9 8 22 8 29 0 7 6 14 14 17 7 3 13 17 13 31 0 28 12 32 30 10z" style="fill: rgb(35, 32, 32);"/>
    <path d="M4715 7760 c-3 -5 -1 -10 4 -10 6 0 11 5 11 10 0 6 -2 10 -4 10 -3 0 -8 -4 -11 -10z" style="fill: rgb(35, 32, 32);"/>
    <path d="M4420 7590 c-9 -22 -15 -28 -21 -18 -11 18 -16 9 -21 -45 -4 -34 -1 -52 9 -62 17 -17 27 -20 18 -5 -3 6 0 10 7 10 8 0 9 3 3 8 -19 14 -14 30 10 36 21 5 25 12 25 44 0 55 -14 70 -30 32z" style="fill: rgb(35, 32, 32);"/>
    <path d="M4441 7494 c0 -11 3 -14 6 -6 3 7 2 16 -1 19 -3 4 -6 -2 -5 -13z" style="fill: rgb(35, 32, 32);"/>
    <path d="M4436 7445 c-9 -26 -7 -32 5 -12 6 10 9 21 6 23 -2 3 -7 -2 -11 -11z" style="fill: rgb(35, 32, 32);"/>
    <path d="M4435 7400 c-3 -5 -1 -10 4 -10 6 0 11 5 11 10 0 6 -2 10 -4 10 -3 0 -8 -4 -11 -10z" style="fill: rgb(35, 32, 32);"/>
    <path d="M4271 7194 c0 -11 3 -14 6 -6 3 7 2 16 -1 19 -3 4 -6 -2 -5 -13z" style="fill: rgb(35, 32, 32);"/>
    <path d="M4275 7149 c-4 -6 -5 -12 -2 -15 2 -3 7 2 10 11 7 17 1 20 -8 4z" style="fill: rgb(35, 32, 32);"/>
    <path d="M4503 7115 c0 -8 4 -15 8 -15 4 0 9 7 13 15 3 9 0 15 -8 15 -7 0 -13 -7 -13 -15z" style="fill: rgb(35, 32, 32);"/>
    <path d="M3260 6837 c-289 -88 -468 -156 -675 -257 -402 -196 -686 -400 -997 -713 -474 -477 -754 -1048 -809 -1650 -14 -152 -6 -487 16 -617 37 -228 100 -434 196 -647 217 -480 534 -861 1014 -1218 187 -140 342 -234 560 -342 439 -216 866 -339 1431 -414 225 -29 258 -31 559 -31 301 0 335 2 559 31 131 17 279 40 330 52 50 11 144 31 208 44 369 76 836 265 1179 476 685 420 1166 993 1381 1644 67 201 128 469 79 345 -224 -569 -662 -1063 -1256 -1418 -457 -273 -1051 -469 -1625 -537 -312 -37 -806 -37 -1105 0 -275 33 -682 125 -893 201 -51 19 -94 34 -96 34 -2 0 -7 -97 -11 -215 l-7 -215 -33 0 -33 0 -5 73 c-5 74 -23 176 -38 212 -4 12 -8 -31 -8 -105 0 -189 2 -180 -36 -180 -32 0 -32 0 -25 40 4 22 6 52 4 67 -9 87 -18 128 -29 139 -7 7 -14 60 -18 134 -4 66 -12 130 -17 141 -10 18 -78 59 -100 59 -6 0 -10 -31 -10 -77 -1 -56 -6 -89 -20 -118 -16 -34 -19 -63 -20 -187 0 -155 -9 -198 -42 -198 -16 0 -18 5 -12 37 4 21 10 39 14 41 9 3 8 6 -15 110 -10 39 -21 72 -26 72 -5 0 -9 -34 -9 -77 0 -42 -3 -73 -7 -69 -4 3 -9 129 -12 278 l-6 272 -113 68 c-237 141 -510 355 -694 544 -208 215 -416 526 -533 799 -45 105 -107 312 -137 453 -31 152 -32 164 -32 402 -1 227 1 256 28 395 55 294 174 590 340 849 355 553 929 991 1660 1267 100 38 174 68 166 68 -8 0 -107 -28 -220 -62z" style="fill: rgb(35, 32, 32);"/>
    <path d="M4162 6305 c0 -16 2 -22 5 -12 2 9 2 23 0 30 -3 6 -5 -1 -5 -18z" style="fill: rgb(35, 32, 32);"/>
    <path d="M8417 3935 c-4 -38 -7 -83 -7 -99 l0 -29 23 21 c21 20 23 28 16 70 -4 26 -11 61 -16 77 -9 27 -10 23 -16 -40z" style="fill: rgb(35, 32, 32);"/>
    <path d="M2945 2460 c-3 -5 -1 -10 4 -10 6 0 11 5 11 10 0 6 -2 10 -4 10 -3 0 -8 -4 -11 -10z" style="fill: rgb(35, 32, 32);"/>
    <path d="M3191 2394 c0 -11 3 -14 6 -6 3 7 2 16 -1 19 -3 4 -6 -2 -5 -13z" style="fill: rgb(35, 32, 32);"/>
    <path d="M3163 2365 c-3 -9 -3 -18 -1 -21 3 -3 8 4 11 16 6 23 -1 27 -10 5z" style="fill: rgb(35, 32, 32);"/>
    <path d="M4885 7340 c3 -5 11 -10 16 -10 6 0 7 5 4 10 -3 6 -11 10 -16 10 -6 0 -7 -4 -4 -10z" style="fill: rgb(35, 32, 32);"/>
    <path d="M6930 3165 c0 -14 4 -25 9 -25 4 0 6 11 3 25 -2 14 -6 25 -8 25 -2 0 -4 -11 -4 -25z" style="fill: rgb(35, 32, 32);"/>
    <path d="M6934 2980 c0 -63 1 -89 3 -57 2 31 2 83 0 115 -2 31 -3 5 -3 -58z" style="fill: rgb(35, 32, 32);"/>
    <path d="M3260 2975 c0 -10 7 -15 18 -13 21 4 19 22 -2 26 -10 2 -16 -3 -16 -13z" style="fill: rgb(35, 32, 32);"/>
    <path d="M7132 3055 c0 -16 2 -22 5 -12 2 9 2 23 0 30 -3 6 -5 -1 -5 -18z" style="fill: rgb(35, 32, 32);"/>
    <path d="M7072 3030 c0 -14 2 -19 5 -12 2 6 2 18 0 25 -3 6 -5 1 -5 -13z" style="fill: rgb(35, 32, 32);"/>
    <path d="M7072 2965 c0 -16 2 -22 5 -12 2 9 2 23 0 30 -3 6 -5 -1 -5 -18z" style="fill: rgb(35, 32, 32);"/>
    <path d="M5117 8349 c7 -7 15 -10 18 -7 3 3 -2 9 -12 12 -14 6 -15 5 -6 -5z" style="fill: rgb(35, 32, 32);"/>
    <path d="M3888 8343 c12 -2 32 -2 45 0 12 2 2 4 -23 4 -25 0 -35 -2 -22 -4z" style="fill: rgb(35, 32, 32);"/>
    <path d="M5198 8343 c7 -3 16 -2 19 1 4 3 -2 6 -13 5 -11 0 -14 -3 -6 -6z" style="fill: rgb(35, 32, 32);"/>
    <path d="M8366 6487 c3 -10 9 -15 12 -12 3 3 0 11 -7 18 -10 9 -11 8 -5 -6z" style="fill: rgb(35, 32, 32);"/>
    <path d="M8430 6390 c6 -11 13 -20 16 -20 2 0 0 9 -6 20 -6 11 -13 20 -16 20 -2 0 0 -9 6 -20z" style="fill: rgb(35, 32, 32);"/>
    <path d="M8466 6323 c6 -4 14 -15 17 -23 5 -11 6 -9 4 4 -1 11 -9 21 -17 23 -10 3 -11 2 -4 -4z" style="fill: rgb(35, 32, 32);"/>
    <path d="M8520 6251 c0 -6 4 -13 10 -16 6 -3 7 1 4 9 -7 18 -14 21 -14 7z" style="fill: rgb(35, 32, 32);"/>
    <path d="M8546 6207 c3 -10 9 -15 12 -12 3 3 0 11 -7 18 -10 9 -11 8 -5 -6z" style="fill: rgb(35, 32, 32);"/>
    <path d="M9081 4534 c0 -11 3 -14 6 -6 3 7 2 16 -1 19 -3 4 -6 -2 -5 -13z" style="fill: rgb(35, 32, 32);"/>
    <path d="M9094 4225 c0 -148 2 -211 3 -138 2 72 2 194 0 270 -1 76 -3 17 -3 -132z" style="fill: rgb(35, 32, 32);"/>
    <path d="M8425 2034 c-9 -15 -12 -23 -6 -20 11 7 35 46 28 46 -3 0 -12 -12 -22 -26z" style="fill: rgb(35, 32, 32);"/>
    <path d="M8229 1763 c-13 -16 -12 -17 4 -4 16 13 21 21 13 21 -2 0 -10 -8 -17 -17z" style="fill: rgb(35, 32, 32);"/>
    <path d="M8169 1693 c-13 -16 -12 -17 4 -4 16 13 21 21 13 21 -2 0 -10 -8 -17 -17z" style="fill: rgb(35, 32, 32);"/>
    <path d="M8093 1613 c4 -3 -1 -16 -10 -27 -18 -21 -18 -21 4 -2 20 16 23 36 6 36 -4 0 -3 -3 0 -7z" style="fill: rgb(35, 32, 32);"/>
    <path d="M7489 1033 c-13 -16 -12 -17 4 -4 16 13 21 21 13 21 -2 0 -10 -8 -17 -17z" style="fill: rgb(35, 32, 32);"/>
    <path d="M7433 1004 c3 -4 -4 -15 -16 -26 l-22 -19 27 17 c24 14 30 34 11 34 -4 0 -4 -3 0 -6z" style="fill: rgb(35, 32, 32);"/>
    <path d="M7132 786 c-46 -33 -53 -43 -14 -20 19 10 38 25 44 32 15 17 8 14 -30 -12z" style="fill: rgb(35, 32, 32);"/>
    <path d="M3440 170 c34 -11 60 -11 35 0 -11 5 -29 8 -40 8 -16 0 -15 -2 5 -8z" style="fill: rgb(35, 32, 32);"/>
    <path d="M3530 163 c0 -16 25 -23 41 -11 11 8 11 9 -2 5 -9 -3 -22 0 -28 6 -8 8 -11 8 -11 0z" style="fill: rgb(35, 32, 32);"/>
    <path d="M5468 123 c6 -2 18 -2 25 0 6 3 1 5 -13 5 -14 0 -19 -2 -12 -5z" style="fill: rgb(35, 32, 32);"/>
    <path d="M3688 113 c7 -3 16 -2 19 1 4 3 -2 6 -13 5 -11 0 -14 -3 -6 -6z" style="fill: rgb(35, 32, 32);"/>
    <path d="M3813 93 c9 -2 23 -2 30 0 6 3 -1 5 -18 5 -16 0 -22 -2 -12 -5z" style="fill: rgb(35, 32, 32);"/>
    <path d="M5298 93 c6 -2 18 -2 25 0 6 3 1 5 -13 5 -14 0 -19 -2 -12 -5z" style="fill: rgb(35, 32, 32);"/>
    <path d="M3888 83 c6 -2 18 -2 25 0 6 3 1 5 -13 5 -14 0 -19 -2 -12 -5z" style="fill: rgb(35, 32, 32);"/>
    <path d="M3985 80 c-27 -7 -27 -8 -5 -8 14 0 39 4 55 8 27 7 27 8 5 8 -14 0 -38 -4 -55 -8z" style="fill: rgb(35, 32, 32);"/>
    <path d="M4055 70 c-16 -7 -14 -8 12 -7 17 1 29 5 26 10 -5 9 -12 8 -38 -3z" style="fill: rgb(35, 32, 32);"/>
    <path d="M5014 69 c-6 -11 52 -10 121 1 46 7 43 8 -33 8 -45 -1 -85 -5 -88 -9z" style="fill: rgb(35, 32, 32);"/>
    <path d="M4445 50 c-22 -4 47 -8 154 -9 107 0 191 2 188 6 -9 9 -292 11 -342 3z" style="fill: rgb(35, 32, 32);"/>
    <path d="M4918 53 c12 -2 30 -2 40 0 9 3 -1 5 -23 4 -22 0 -30 -2 -17 -4z" style="fill: rgb(35, 32, 32);"/>
    <rect x="2377.412" y="-3171.79" width="4922.518" height="91.159" style="stroke: rgb(0, 0, 0); fill: rgb(243, 240, 86);" transform="matrix(1, 0, 0, -1, 0, 0)"/>
    <rect x="-8040.112" y="-8062.901" width="18.231" height="127.62" style="fill: rgb(216, 216, 216); stroke: rgb(0, 0, 0); visibility: hidden;" transform="matrix(1, 0, 0, -1, 14629.012242, -4836.418959)"/>
  </g>
</svg>